<?xml version="1.0" encoding="utf-8"?>
<!-- Generator: Adobe Illustrator 16.0.4, SVG Export Plug-In . SVG Version: 6.00 Build 0)  -->
<!DOCTYPE svg PUBLIC "-//W3C//DTD SVG 1.1//EN" "http://www.w3.org/Graphics/SVG/1.1/DTD/svg11.dtd">
<svg version="1.1" id="Layer_1" xmlns="http://www.w3.org/2000/svg" xmlns:xlink="http://www.w3.org/1999/xlink" x="0px" y="0px"
	 width="24px" height="24px" viewBox="0 0 24 24" enable-background="new 0 0 24 24" xml:space="preserve">
<path fill="#FFFFFF" stroke="#FFFFFF" stroke-linejoin="bevel" stroke-miterlimit="10" d="M12,0.59C5.708,0.59,0.59,5.709,0.59,12
	S5.708,23.41,12,23.41c6.292,0,11.41-5.118,11.41-11.41S18.292,0.59,12,0.59z M12,22.363C6.286,22.363,1.637,17.714,1.637,12
	C1.637,6.286,6.286,1.637,12,1.637c5.714,0,10.363,4.649,10.363,10.363C22.363,17.714,17.714,22.363,12,22.363z"/>
<g>
	<path fill="#FFFFFF" stroke="#FFFFFF" stroke-miterlimit="10" d="M18.702,11.603l-6.7,0.07l-6.705-0.07
		c-0.219,0-0.397,0.179-0.397,0.398s0.178,0.397,0.399,0.397l6.701-0.07l6.703,0.07h0.002c0.22,0,0.397-0.178,0.397-0.397
		S18.923,11.603,18.702,11.603z"/>
	<path fill="#FFFFFF" stroke="#FFFFFF" stroke-miterlimit="10" d="M11.603,5.298l0.07,6.701l-0.07,6.705
		c0,0.22,0.178,0.397,0.397,0.397c0.22,0,0.397-0.178,0.397-0.399l-0.07-6.7l0.07-6.703V5.296c0-0.219-0.178-0.397-0.397-0.397
		C11.781,4.899,11.603,5.078,11.603,5.298z"/>
	<path fill="#FFFFFF" stroke="#FFFFFF" stroke-miterlimit="10" d="M16.458,6.98l-4.689,4.788l-4.79,4.691
		c-0.155,0.156-0.155,0.408,0,0.562c0.155,0.155,0.406,0.155,0.562-0.001l4.689-4.787l4.79-4.691l0.001-0.001
		c0.154-0.155,0.155-0.407,0-0.562C16.866,6.824,16.615,6.824,16.458,6.98z"/>
	<path fill="#FFFFFF" stroke="#FFFFFF" stroke-miterlimit="10" d="M17.02,16.458l-4.787-4.689l-4.692-4.79
		c-0.155-0.155-0.407-0.155-0.562,0c-0.155,0.155-0.155,0.406,0,0.562l4.788,4.689l4.691,4.789l0,0.001
		c0.155,0.154,0.407,0.155,0.562,0C17.176,16.866,17.175,16.614,17.02,16.458z"/>
</g>
</svg>
