<?xml version="1.0" encoding="utf-8"?>
<!-- Generator: Adobe Illustrator 16.0.4, SVG Export Plug-In . SVG Version: 6.00 Build 0)  -->
<!DOCTYPE svg PUBLIC "-//W3C//DTD SVG 1.1//EN" "http://www.w3.org/Graphics/SVG/1.1/DTD/svg11.dtd">
<svg version="1.1" id="Layer_1" xmlns="http://www.w3.org/2000/svg" xmlns:xlink="http://www.w3.org/1999/xlink" x="0px" y="0px"
	 width="50px" height="50px" viewBox="0 0 50 50" enable-background="new 0 0 50 50" xml:space="preserve">
<g>
	<path stroke="#000000" stroke-width="1.5" stroke-linecap="round" stroke-linejoin="round" stroke-miterlimit="10" d="
		M40.611,18.385c0.021,0.322,0.021,0.643,0.021,0.964c0,9.795-7.455,21.083-21.083,21.083c-4.198,0-8.098-1.216-11.379-3.326
		C8.766,37.174,9.34,37.2,9.96,37.2c3.464,0,6.652-1.173,9.199-3.165c-3.258-0.069-5.988-2.203-6.928-5.143
		c0.459,0.067,0.917,0.114,1.399,0.114c0.665,0,1.331-0.092,1.95-0.252c-3.395-0.688-5.942-3.671-5.942-7.273
		c0-0.022,0-0.068,0-0.092c0.987,0.551,2.134,0.895,3.35,0.941C10.992,21,9.685,18.729,9.685,16.16c0-1.377,0.367-2.638,1.009-3.74
		c3.647,4.496,9.131,7.433,15.279,7.754c-0.113-0.551-0.184-1.125-0.184-1.698c0-4.083,3.305-7.41,7.411-7.41
		c2.132,0,4.06,0.895,5.413,2.34c1.674-0.321,3.281-0.94,4.703-1.79c-0.551,1.721-1.721,3.166-3.258,4.084
		c1.487-0.161,2.938-0.573,4.268-1.147C43.318,16.022,42.057,17.331,40.611,18.385z"/>
</g>
</svg>
