<?xml version="1.0" encoding="utf-8"?>
<!-- Generator: Adobe Illustrator 16.0.4, SVG Export Plug-In . SVG Version: 6.00 Build 0)  -->
<!DOCTYPE svg PUBLIC "-//W3C//DTD SVG 1.1//EN" "http://www.w3.org/Graphics/SVG/1.1/DTD/svg11.dtd">
<svg version="1.1" id="Layer_1" xmlns="http://www.w3.org/2000/svg" xmlns:xlink="http://www.w3.org/1999/xlink" x="0px" y="0px"
	 width="50px" height="50px" viewBox="0 0 50 50" enable-background="new 0 0 50 50" xml:space="preserve">
<g>
	<path fill="#FFFFFF" d="M25,0.043c-13.76,0-24.959,11.195-24.959,24.955c0,13.764,11.195,24.959,24.959,24.959
		c13.764,0,24.959-11.195,24.959-24.959C49.959,11.238,38.764,0.043,25,0.043z M25,46.294c-11.737,0-21.28-9.551-21.28-21.296
		C3.72,13.26,13.263,3.717,25,3.717c11.738,0,21.289,9.543,21.289,21.281S36.738,46.294,25,46.294z"/>
	<path fill="#FFFFFF" d="M40.387,23.298H29.111l7.964-7.963c0.321-0.322,0.506-0.749,0.506-1.202
		c0.004-0.457-0.177-0.888-0.499-1.202c-0.643-0.644-1.768-0.644-2.402,0l-7.979,7.97V9.62c0-0.936-0.762-1.7-1.701-1.7
		c-0.94,0-1.7,0.764-1.7,1.7v11.281l-7.978-7.978c-0.651-0.636-1.76-0.636-2.397,0.008c-0.659,0.659-0.659,1.738,0,2.397l7.971,7.97
		H9.618c-0.937,0-1.7,0.764-1.7,1.704c0,0.939,0.764,1.704,1.7,1.704h11.277l-7.978,7.978c-0.652,0.662-0.652,1.737,0.037,2.436
		c0.652,0.599,1.7,0.617,2.375-0.029l7.97-7.975v11.27c0,0.93,0.764,1.688,1.704,1.688c0.461,0,0.896-0.179,1.218-0.505
		c0.314-0.322,0.49-0.75,0.486-1.191V29.114l8.008,8.008c0.659,0.595,1.651,0.629,2.375-0.042c0.655-0.666,0.651-1.741-0.009-2.404
		l-7.978-7.974h11.28c0.931,0,1.69-0.765,1.69-1.704C42.076,24.058,41.318,23.298,40.387,23.298z"/>
</g>
</svg>
