<?xml version="1.0" encoding="utf-8"?>
<!-- Generator: Adobe Illustrator 16.0.4, SVG Export Plug-In . SVG Version: 6.00 Build 0)  -->
<!DOCTYPE svg PUBLIC "-//W3C//DTD SVG 1.1//EN" "http://www.w3.org/Graphics/SVG/1.1/DTD/svg11.dtd">
<svg version="1.1" id="Layer_2" xmlns="http://www.w3.org/2000/svg" xmlns:xlink="http://www.w3.org/1999/xlink" x="0px" y="0px"
	 width="50px" height="38.377px" viewBox="0 0 50 38.377" enable-background="new 0 0 50 38.377" xml:space="preserve">
<path d="M48.675,12.98c-0.53-0.531-1.391-0.531-1.922,0L26.361,33.371V1.653c0-0.751-0.608-1.359-1.358-1.359
	c-0.751,0-1.359,0.608-1.359,1.359v31.711L3.312,12.981c-0.53-0.532-1.391-0.533-1.922-0.002c-0.532,0.53-0.533,1.39-0.003,1.921
	L24.04,37.612c0.013,0.013,0.031,0.017,0.044,0.029c0.116,0.106,0.246,0.202,0.398,0.267c0.001,0,0.003,0,0.004,0
	c0.005,0.003,0.011,0.004,0.017,0.006c0.162,0.063,0.331,0.099,0.499,0.099l0,0l0,0l0,0c0.172,0,0.341-0.035,0.5-0.099
	c0.004-0.002,0.01-0.002,0.014-0.004c0.162-0.067,0.314-0.166,0.444-0.295c0-0.001,0.001-0.001,0.001-0.001l0,0
	c0.001-0.002,0.001-0.002,0.001-0.002l22.713-22.71C49.206,14.372,49.206,13.51,48.675,12.98z"/>
</svg>
