<?xml version="1.0" encoding="utf-8"?>
<!-- Generator: Adobe Illustrator 16.0.4, SVG Export Plug-In . SVG Version: 6.00 Build 0)  -->
<!DOCTYPE svg PUBLIC "-//W3C//DTD SVG 1.1//EN" "http://www.w3.org/Graphics/SVG/1.1/DTD/svg11.dtd">
<svg version="1.1" id="Layer_2" xmlns="http://www.w3.org/2000/svg" xmlns:xlink="http://www.w3.org/1999/xlink" x="0px" y="0px"
	 width="50px" height="38.377px" viewBox="0 -12.123 50 38.377" enable-background="new 0 -12.123 50 38.377" xml:space="preserve">
<path fill="#FFFFFF" d="M48.675,0.98c-0.53-0.531-1.391-0.531-1.922,0L26.362,21.371v-31.718c0-0.751-0.609-1.359-1.359-1.359
	c-0.751,0-1.359,0.608-1.359,1.359v31.711L3.312,0.981C2.782,0.449,1.921,0.448,1.39,0.979C0.858,1.509,0.857,2.369,1.387,2.9
	l22.653,22.712c0.013,0.013,0.031,0.017,0.044,0.029c0.116,0.107,0.246,0.203,0.398,0.267c0.001,0,0.003,0,0.004,0
	c0.005,0.003,0.011,0.004,0.017,0.006c0.162,0.064,0.331,0.098,0.499,0.098c0,0,0,0,0,0l0,0h0c0.172,0,0.341-0.034,0.5-0.098
	c0.004-0.002,0.009-0.002,0.013-0.004c0.163-0.067,0.315-0.166,0.445-0.295c0-0.001,0.001-0.001,0.001-0.001l0,0
	c0.001-0.001,0.001-0.001,0.001-0.001L48.675,2.902C49.206,2.372,49.206,1.51,48.675,0.98z"/>
</svg>
